<svg aria-hidden="true" style="position: absolute; width: 0; height: 0; overflow: hidden;" version="1.1"
    xmlns="http://www.w3.org/2000/svg" xmlns:xlink="http://www.w3.org/1999/xlink">
    <defs>
        <symbol id="vector-buy" viewBox="0 0 26 32">
    <path stroke-linejoin="round" stroke-linecap="round" stroke-miterlimit="4" stroke-width="6.4" d="M3.542 3.2l16.826 12.8-16.826 12.8"></path>
    </symbol>
        
        <symbol id="logo" viewBox="0 0 127 32">
            <path fill="#fff" style="fill: var(--color1, #fff)" d="M31.36 16.32c0 8.66-6.877 15.68-15.36 15.68s-15.36-7.020-15.36-15.68c0-8.66 6.877-15.68 15.36-15.68s15.36 7.020 15.36 15.68z"></path>
            <path fill="#d41443" style="fill: var(--color2, #d41443)" d="M11.849 0.561c-7.405 2.243-11.849 8.074-11.849 15.442 0 6.022 3.091 11.277 8.179 13.904 2.64 1.345 3.027 0.384 0.579-1.474-1.738-1.409-2.061-2.050-2.061-4.421 0-1.666-0.386-3.011-0.966-3.524-1.158-0.961-1.288-3.46-0.128-4.357 0.45-0.384 0.901-1.666 0.965-2.819 0.323-4.228 4.895-8.201 9.467-8.201s9.144 3.972 9.466 8.201c0.064 1.153 0.515 2.435 0.966 2.819 1.158 0.897 1.030 3.396-0.129 4.357-0.579 0.513-0.966 1.858-0.966 3.524 0 2.371-0.321 3.012-2.060 4.421-2.705 2.115-1.932 2.883 1.094 1.025 4.251-2.627 7.406-8.33 7.406-13.391 0-10.124-10.561-18.325-19.964-15.506z"></path>
            <path fill="#d41443" style="fill: var(--color2, #d41443)" d="M12.687 7.994c-1.16 0.513-2.125 1.154-2.125 1.538 0 0.705 3.478 1.987 5.474 1.987s5.474-1.281 5.474-1.987c0-0.768-3.993-2.499-5.603-2.499-0.644 0.064-2.125 0.448-3.22 0.961zM45.851 11.326c-0.966 0.256-1.158 1.089-1.158 5.702v5.382h4.572l-0.193-5.574c-0.193-5.83-0.451-6.28-3.22-5.51zM53.386 11.646c-2.125 1.154-2.898 2.563-2.898 5.318 0 3.78 2.061 5.574 5.86 5.318 2.576-0.192 2.833-0.385 3.027-1.987s0.064-1.73-1.932-1.602c-2.061 0.192-2.125 0.064-2.125-2.051s0.129-2.243 1.997-2.050c1.545 0.128 2.125-0.128 2.382-1.089 0.129-0.641 0-1.538-0.387-1.923-0.901-0.897-4.25-0.897-5.924 0.064zM61.050 11.71c-0.194 0.513-0.258 3.012-0.129 5.638l0.193 4.742h4.186c3.864 0 4.186-0.128 4.379-1.474 0.193-1.217-0.064-1.409-2.060-1.409-1.288 0-2.319-0.32-2.319-0.641 0-0.385 0.902-0.641 1.932-0.641 1.481 0 1.932-0.256 1.932-1.281s-0.451-1.281-1.932-1.281c-1.030 0-1.932-0.32-1.932-0.641 0-0.385 0.837-0.641 1.868-0.641 1.804 0 3.027-1.409 2.254-2.627-0.58-0.961-7.985-0.705-8.371 0.256zM73.993 11.518c-2.125 0.833-2.962 2.307-3.027 4.998-0.065 4.613 1.803 6.215 6.633 5.766 1.868-0.128 2.189-0.448 2.189-1.794 0-1.409-0.257-1.602-2.061-1.409-1.546 0.128-2.125-0.064-2.447-1.089-0.58-1.987 0.644-3.588 2.705-3.588 1.224 0 1.868-0.384 1.996-1.217 0.451-2.051-2.833-3.011-5.989-1.666zM81.914 11.262c-0.323 0.256-0.515 2.883-0.515 5.83v5.382l2.060-0.192c1.61-0.128 2.19-0.577 2.512-1.795l0.386-1.602 0.515 1.73c0.387 1.474 0.837 1.795 2.512 1.795 2.769 0 3.091-0.449 1.932-2.691-0.708-1.41-0.837-2.115-0.322-2.627 0.837-0.833 0.902-3.652 0.129-4.87-0.644-1.025-8.371-1.858-9.208-0.961zM87.194 14.722c0 0.705-0.257 1.281-0.644 1.281-0.322 0-0.644-0.576-0.644-1.281s0.322-1.282 0.644-1.282c0.387 0 0.644 0.577 0.644 1.282zM93.441 11.326c-0.258 0.192-0.451 2.819-0.451 5.766v5.318h4.186c4.057 0 4.186-0.064 4.186-1.602 0-1.346-0.322-1.602-1.932-1.602-1.030 0-1.932-0.32-1.932-0.641 0-0.385 0.708-0.641 1.61-0.641 1.159 0 1.61-0.321 1.61-1.282s-0.451-1.281-1.61-1.281c-0.902 0-1.61-0.32-1.61-0.641 0-0.384 0.902-0.641 1.932-0.641 1.61 0 1.932-0.256 1.932-1.602 0-1.538-0.193-1.602-3.735-1.602-2.061 0-3.992 0.192-4.186 0.448zM106.45 11.262c-1.16 0.32-4.122 8.842-3.542 10.252 0.515 1.281 3.413 1.153 4.186-0.192 0.579-1.089 0.644-1.089 1.803 0 1.482 1.281 4.701 1.474 4.701 0.256 0-0.384-0.644-2.947-1.482-5.574-1.288-4.228-1.674-4.805-3.027-4.933-0.902 0-2.061 0.064-2.64 0.192zM108.253 17.092c-0.193 0.641-0.322 0.256-0.322-0.769 0-1.089 0.129-1.538 0.322-1.153 0.129 0.448 0.129 1.345 0 1.922zM115.723 11.326c-0.58 0.192-0.837 1.986-0.837 5.702v5.382h1.868c1.61 0 1.932-0.321 2.189-1.795 0.257-1.666 0.257-1.666 0.772-0.32 0.258 0.833 0.902 1.474 1.352 1.474 0.515 0 1.224-0.641 1.546-1.474 0.515-1.346 0.58-1.346 0.58 0.384 0.065 1.602 0.257 1.795 2.061 1.602l1.996-0.192 0.065-5.318c0.129-4.933 0.064-5.318-1.288-5.638-2.061-0.512-3.799 0.705-4.379 3.076l-0.451 2.115-0.708-2.243c-0.902-3.012-2.254-3.78-4.765-2.755zM9.016 11.967c-0.193 0.256-0.387 1.089-0.387 1.922 0 1.474 0.064 1.474 7.406 1.474 7.341 0 7.405 0 7.405-1.474 0-2.179-0.579-2.435-2.64-1.409-2.319 1.217-7.213 1.217-9.531 0-1.030-0.513-1.997-0.705-2.254-0.513zM7.148 17.669c-1.030 1.089 0.708 1.538 5.731 1.538h5.409v2.243c0 1.217 0.322 2.243 0.644 2.243 0.386 0 0.644-0.961 0.644-2.179 0-2.115 0.129-2.243 2.576-2.435 1.416-0.128 2.576-0.512 2.576-0.832 0-0.705-16.872-1.282-17.581-0.577z"></path>
            <path fill="#d41443" style="fill: var(--color2, #d41443)" d="M8.629 23.308c0 3.524 1.224 4.229 7.406 4.229s7.405-0.705 7.405-4.229c0-1.538-0.322-2.179-0.966-2.179-0.579 0-0.965 0.577-0.965 1.538 0 3.588-4.895 3.908-5.603 0.384-0.322-1.858-0.515-1.922-3.799-1.922h-3.478v2.179zM12.622 30.548c0.387 2.051 6.955 1.859 6.955-0.128 0-0.705-0.837-0.961-3.606-0.961-3.027 0-3.542 0.192-3.348 1.089z"></path>
        </symbol>
        <symbol id="burger-test" viewBox="0 0 20 14">
            <path d="M0 1H20"></path>
            <path d="M0 7H20"></path>
            <path d="M0 13H20"></path>
        </symbol>
        <symbol viewBox="0 0 16 16" id="cross-test">
            <path d="M1.25925 1L14.7407 15" stroke="white"></path>
            <path d="M1 14.7407L15 1.25924" stroke="white"></path>
        </symbol>
        <symbol id="cross-modal" viewBox="0 0 32 32">
            <path d="M31.439 3.166l-3.166-3.166-12.553 12.553-12.553-12.553-3.166 3.166 12.553 12.553-12.553 12.553 3.166 3.166 12.553-12.553 12.553 12.553 3.166-3.166-12.553-12.553 12.553-12.553z"></path>
        </symbol>
        <!-- Social icons -->
        <symbol viewBox="0 0 32 32" id="github">
            <circle cx="16" cy="16" r="16"></circle>
            <path
                d="M16 6.58813C10.8305 6.58813 6.58823 10.8304 6.58823 15.9999C6.58823 20.4112 9.68365 24.4184 13.7941 25.4117V22.2979C13.3868 22.387 13.012 22.3896 12.5974 22.2674C12.0412 22.1033 11.5892 21.7328 11.2538 21.1678C11.0399 20.807 10.6609 20.4158 10.2656 20.4446L10.1686 19.3459C11.0236 19.2727 11.7632 19.8668 12.2022 20.6044C12.3972 20.9324 12.6217 21.1247 12.9098 21.2097C13.1882 21.2917 13.4872 21.2524 13.8356 21.1293C13.9231 20.4318 14.2426 20.1707 14.484 19.803V19.8025C12.0326 19.4368 11.0556 18.1363 10.6678 17.1097C10.154 15.7467 10.4297 14.0439 11.3383 12.9678C11.356 12.9468 11.3879 12.892 11.3755 12.8536C10.9589 11.5952 11.4666 10.5541 11.4853 10.4437C11.9661 10.5859 12.0442 10.3007 13.5738 11.23L13.8382 11.3888C13.9488 11.4547 13.914 11.4171 14.0246 11.4088C14.6633 11.2353 15.3365 11.1395 15.9999 11.1309C16.6682 11.1395 17.3372 11.2353 18.0022 11.4158L18.0878 11.4244C18.0804 11.4233 18.1111 11.419 18.1627 11.3882C20.0734 10.2309 20.0048 10.6091 20.5172 10.4425C20.5357 10.5531 21.0366 11.6111 20.6245 12.8536C20.5689 13.0248 22.281 14.5926 21.332 17.1093C20.9443 18.1363 19.9674 19.4368 17.516 19.8025V19.803C17.8302 20.282 18.2077 20.5367 18.2057 21.5248V25.4117C22.3163 24.4184 25.4116 20.4112 25.4116 15.9999C25.4118 10.8304 21.1695 6.58813 16 6.58813V6.58813Z"
                fill="white"></path>
        </symbol>
        <symbol viewBox="0 0 33 32" id="telegram">
            <g clip-path="url(#clip0_57354_400)">
                <circle cx="16.2353" cy="16" r="16"></circle>
                <path
                    d="M13.1025 18.3753L12.7849 22.5446C13.2393 22.5446 13.4361 22.3624 13.6721 22.1437L15.8026 20.2434L20.2171 23.2607C21.0267 23.6818 21.5971 23.46 21.8155 22.5655L24.7132 9.89318L24.714 9.89243C24.9708 8.77542 24.2812 8.33863 23.4924 8.61265L6.45996 14.6987C5.29753 15.1198 5.31513 15.7246 6.26235 15.9986L10.6169 17.2627L20.7315 11.3559C21.2075 11.0617 21.6403 11.2245 21.2843 11.5187L13.1025 18.3753Z"
                    fill="white"></path>
            </g>
            <defs>
                <clipPath id="clip0_57354_400">
                    <rect width="32" height="32" fill="white" transform="translate(0.235264)"></rect>
                </clipPath>
            </defs>
        </symbol>
        <symbol viewBox="0 0 33 32" id="facebook">
            <g clip-path="url(#clip0_57354_393)">
                <path
                    d="M16.4706 32C25.3071 32 32.4706 24.8366 32.4706 16C32.4706 7.16344 25.3071 0 16.4706 0C7.63403 0 0.470589 7.16344 0.470589 16C0.470589 24.8366 7.63403 32 16.4706 32Z">
                </path>
                <path
                    d="M20.9162 15.9814H18.3061V25.5999H14.3514V15.9814H12.4706V12.6011H14.3514V10.4136C14.3514 8.84938 15.0901 6.3999 18.3413 6.3999L21.2706 6.41223V9.69341H19.1452C18.7965 9.69341 18.3063 9.86861 18.3063 10.6148V12.6042H21.2617L20.9162 15.9814Z"
                    fill="white"></path>
            </g>
            <defs>
                <clipPath id="clip0_57354_393">
                    <rect width="32" height="32" fill="white" transform="translate(0.470589)"></rect>
                </clipPath>
            </defs>
        </symbol>
        <symbol id="vector" viewBox="0 0 22 32">
            <path stroke-linejoin="round" stroke-linecap="round" stroke-miterlimit="4" stroke-width="6.4"
                d="M4.545 3.2l13.7 12.8-13.7 12.8"></path>
        </symbol>
        <symbol id="ellipse" viewBox="0 0 16 16">
            <circle r="8" transform="matrix(-1 0 0 1 8 8)" fill="white"></circle>
        </symbol>
        <symbol  viewBox="0 0 7 10" id="arrow">
            <path d="M1.74207 1L5.76722 5L1.74207 9" stroke="#D41443" stroke-width="2" stroke-linecap="round" stroke-linejoin="round"></path>
        </symbol>
    </defs>
</svg>